{
  "asset": {
    "generator": "glTF-Transform v4.2.1",
    "version": "2.0"
  },
  "accessors": [
    {
      "type": "VEC3",
      "componentType": 5126,
      "count": 2399,
      "max": [
        4.749785423278809,
        8.09755802154541,
        2.663062810897827
      ],
      "min": [
        -3.4222638607025146,
        0.49035581946372986,
        -3.0286552906036377
      ],
      "bufferView": 0,
      "byteOffset": 0
    },
    {
      "type": "VEC3",
      "componentType": 5126,
      "count": 2399,
      "bufferView": 0,
      "byteOffset": 12
    },
    {
      "type": "VEC2",
      "componentType": 5126,
      "count": 2399,
      "bufferView": 0,
      "byteOffset": 24
    },
    {
      "type": "SCALAR",
      "componentType": 5123,
      "count": 12636,
      "bufferView": 1,
      "byteOffset": 0
    }
  ],
  "bufferViews": [
    {
      "buffer": 0,
      "byteOffset": 0,
      "byteLength": 76768,
      "byteStride": 32,
      "target": 34962
    },
    {
      "buffer": 0,
      "byteOffset": 76768,
      "byteLength": 25272,
      "target": 34963
    }
  ],
  "samplers": [
    {
      "magFilter": 9729,
      "minFilter": 9987,
      "wrapS": 10497,
      "wrapT": 10497
    }
  ],
  "textures": [
    {
      "source": 0,
      "sampler": 0
    }
  ],
  "images": [
    {
      "mimeType": "image/png",
      "uri": "baseColor.png"
    }
  ],
  "buffers": [
    {
      "uri": "buffer.bin",
      "byteLength": 102040
    }
  ],
  "materials": [
    {
      "name": "blinn3-fx",
      "pbrMetallicRoughness": {
        "metallicFactor": 0,
        "baseColorTexture": {
          "index": 0
        }
      }
    }
  ],
  "meshes": [
    {
      "primitives": [
        {
          "attributes": {
            "POSITION": 0,
            "NORMAL": 1,
            "TEXCOORD_0": 2
          },
          "mode": 4,
          "material": 0,
          "indices": 3
        }
      ]
    }
  ],
  "nodes": [
    {
      "name": "Scene",
      "children": [
        1
      ]
    },
    {
      "name": "Node_0",
      "extras": {
        "name": "Node_0"
      },
      "scale": [
        2.1215741634368896,
        2.1215741634368896,
        2.1215741634368896
      ],
      "children": [
        2
      ]
    },
    {
      "name": "LOD3spShape",
      "extras": {
        "name": "LOD3spShape"
      },
      "mesh": 0
    }
  ],
  "scenes": [
    {
      "name": "AuxScene",
      "nodes": [
        0
      ]
    }
  ],
  "scene": 0
}